<?xml version="1.0" standalone="no"?>
<!DOCTYPE svg PUBLIC "-//W3C//DTD SVG 20010904//EN"
 "http://www.w3.org/TR/2001/REC-SVG-20010904/DTD/svg10.dtd">
<svg version="1.0" xmlns="http://www.w3.org/2000/svg"
 width="576.000000pt" height="528.000000pt" viewBox="0 0 576.000000 528.000000"
 preserveAspectRatio="xMidYMid meet">

<g transform="translate(0.000000,528.000000) scale(0.100000,-0.100000)"
fill="#0000CD" stroke="none">
<path d="M2591 4230 c-85 -176 -159 -327 -165 -335 -9 -13 -53 14 -274 170
l-263 185 -77 -59 c-91 -69 -119 -98 -106 -110 5 -5 143 -102 307 -216 164
-115 296 -211 295 -215 -2 -4 -68 -142 -148 -307 l-144 -300 -231 146 c-554
349 -508 323 -521 298 -14 -26 -74 -195 -74 -207 0 -5 121 -84 268 -177 l268
-168 -245 -71 c-135 -39 -272 -78 -304 -88 -56 -16 -57 -17 -57 -55 0 -35 20
-203 24 -208 2 -2 162 43 358 100 l355 103 -62 -131 c-35 -71 -133 -275 -220
-453 l-157 -322 55 -73 c30 -39 69 -88 85 -107 l30 -35 107 220 c58 121 176
365 262 543 86 177 160 322 165 322 9 0 779 -483 775 -486 -1 -1 -245 -141
-542 -312 -297 -170 -570 -327 -608 -349 l-67 -39 92 -74 c51 -41 98 -78 104
-82 7 -5 206 103 520 283 280 161 519 299 532 307 12 8 22 11 22 6 0 -4 -39
-205 -86 -446 -48 -241 -84 -444 -80 -453 4 -12 26 -15 113 -15 59 0 113 4
119 8 7 4 53 214 103 467 51 253 95 468 99 477 6 16 14 13 67 -21 33 -22 221
-140 417 -264 l358 -225 85 84 c47 47 85 88 85 92 0 4 -189 126 -420 271 -231
145 -417 267 -415 271 8 13 539 315 551 314 6 -1 136 -90 288 -198 153 -108
279 -196 281 -196 6 0 45 106 64 173 l20 67 -210 146 -210 146 43 27 c24 15
127 78 231 141 l187 113 -6 51 c-6 57 -33 198 -38 203 -2 2 -147 -80 -324
-182 -177 -102 -323 -185 -326 -185 -3 0 -117 79 -253 175 -152 108 -248 182
-248 192 0 12 18 22 60 35 33 10 270 79 527 155 l468 136 -59 111 c-33 61 -63
110 -68 109 -4 0 -201 -58 -437 -127 -236 -70 -431 -125 -433 -122 -2 2 35
206 84 453 l89 449 -51 23 c-107 49 -175 72 -179 59 -3 -7 -50 -247 -107 -533
-56 -286 -106 -526 -111 -532 -6 -7 -25 -15 -43 -19 -30 -5 -50 6 -236 138
-112 79 -232 163 -265 187 l-62 42 78 162 c43 89 132 273 198 410 l121 247
-137 0 -137 0 -154 -320z m96 -841 c85 -59 154 -111 154 -116 0 -7 -512 -163
-519 -158 -1 1 41 90 94 198 60 123 100 194 107 190 6 -4 80 -55 164 -114z
m457 -326 l22 -18 -65 -326 -66 -325 -357 225 c-197 124 -358 229 -358 232 0
7 749 227 778 228 13 1 34 -7 46 -16z m406 -285 c139 -97 157 -113 142 -123
-9 -7 -103 -61 -208 -122 l-191 -110 23 116 c51 267 68 351 71 351 2 0 76 -50
163 -112z"/>
<path d="M410 2833 c-184 -24 -340 -49 -347 -55 -27 -22 -6 -109 25 -108 4 1
65 9 137 19 75 11 137 15 146 10 12 -6 19 -35 28 -109 16 -149 15 -169 -11
-179 -13 -5 -76 -14 -140 -21 -65 -7 -125 -18 -134 -24 -25 -19 -10 -94 19
-101 28 -7 719 83 731 95 13 13 -49 500 -65 511 -19 12 -9 13 -389 -38z m283
-95 c23 -17 56 -250 38 -272 -13 -15 -151 -39 -176 -30 -18 7 -21 17 -40 159
-12 88 -13 112 -2 122 7 7 44 17 82 22 39 4 73 9 76 10 3 0 13 -5 22 -11z"/>
<path d="M4952 2859 c-15 -41 -65 -490 -55 -500 11 -11 702 -101 729 -95 26 7
24 1 60 279 24 189 26 219 13 232 -13 13 -308 55 -385 55 -35 0 -44 -13 -44
-66 0 -40 -5 -38 169 -63 67 -10 126 -22 132 -28 13 -13 -13 -259 -29 -275
-13 -13 -492 49 -511 67 -11 11 -10 42 10 199 17 135 20 189 12 197 -6 6 -29
13 -52 16 -36 5 -41 3 -49 -18z"/>
<path d="M582 2017 c-202 -102 -324 -169 -328 -180 -3 -11 35 -96 101 -225
114 -221 121 -232 140 -232 15 0 635 318 653 335 22 20 -15 90 -48 90 -14 0
-141 -60 -283 -133 -142 -73 -266 -132 -275 -130 -20 4 -131 203 -132 236 0
19 36 40 275 159 172 86 277 145 281 156 6 20 -32 87 -49 86 -7 0 -157 -73
-335 -162z"/>
<path d="M4810 2148 c-11 -18 -20 -36 -20 -40 0 -17 43 -43 203 -124 94 -48
192 -98 217 -113 l45 -26 -95 -6 c-52 -4 -167 -7 -256 -8 -222 -1 -251 -6
-275 -45 -41 -67 -50 -60 313 -242 l332 -166 18 22 c22 28 34 69 22 80 -5 5
-108 60 -229 122 l-220 112 40 8 c22 4 103 7 181 7 77 1 195 4 262 8 l121 6
22 42 c12 23 20 49 16 58 -6 17 -635 337 -662 337 -8 0 -24 -15 -35 -32z"/>
<path d="M1118 1423 c-76 -81 -138 -155 -138 -164 0 -10 61 -75 135 -145 74
-71 135 -134 135 -140 0 -23 -111 -134 -133 -134 -14 0 -67 45 -147 125 -140
138 -162 149 -199 96 -12 -16 -21 -34 -21 -39 0 -12 357 -352 370 -352 13 0
45 30 174 169 64 68 116 131 116 141 0 9 -61 74 -135 144 -74 71 -135 133
-135 140 0 23 111 136 132 136 13 0 69 -47 149 -125 71 -69 137 -125 147 -125
20 0 72 49 72 67 0 16 -347 347 -368 351 -11 2 -65 -49 -154 -145z"/>
<path d="M4349 1451 c-52 -50 -70 -74 -67 -88 5 -20 379 -577 406 -605 16 -16
19 -16 51 -1 71 35 70 37 -111 305 -198 292 -180 264 -165 276 9 8 79 -33 267
-154 140 -90 260 -164 267 -164 18 0 54 52 51 73 -2 13 -104 88 -306 223 -167
112 -308 204 -313 204 -4 0 -41 -31 -80 -69z"/>
<path d="M4012 1150 c-19 -12 -32 -26 -29 -33 3 -7 65 -135 138 -284 126 -260
132 -273 115 -291 -9 -11 -34 -27 -56 -37 -33 -15 -42 -16 -56 -4 -9 7 -47 75
-85 152 -64 126 -72 138 -92 132 -37 -11 -67 -35 -67 -51 0 -9 29 -77 65 -152
37 -77 63 -143 60 -152 -6 -20 -102 -63 -118 -53 -5 3 -70 129 -143 280 -128
260 -135 273 -162 273 -37 0 -72 -26 -71 -53 1 -36 312 -652 331 -655 26 -5
557 258 563 279 4 11 -54 137 -157 341 -126 249 -168 324 -183 326 -11 1 -35
-7 -53 -18z"/>
<path d="M1722 1153 c-15 -6 -42 -55 -42 -78 0 -9 30 -30 75 -52 41 -20 77
-43 80 -51 3 -8 -56 -135 -130 -283 -74 -147 -135 -277 -135 -289 0 -23 59
-57 84 -47 8 3 76 128 150 276 91 180 141 271 153 273 10 3 48 -11 85 -29 84
-41 103 -42 124 -2 29 58 20 66 -183 168 -219 109 -244 120 -261 114z"/>
<path d="M2240 871 c-9 -39 -9 -55 0 -65 18 -22 -117 -516 -141 -516 -12 0
-20 -14 -29 -51 -7 -28 -9 -54 -4 -58 8 -8 133 -41 152 -41 4 0 14 23 21 50
10 40 10 54 1 65 -17 21 116 506 141 512 15 4 39 62 39 96 0 16 -57 38 -135
53 -32 6 -33 5 -45 -45z"/>
<path d="M2587 827 c-13 -10 -17 -67 -23 -374 -8 -397 -8 -393 50 -393 62 0
61 -4 66 269 3 137 8 252 11 256 4 3 66 -110 139 -252 73 -142 139 -264 148
-270 21 -17 77 -16 95 2 12 11 16 80 22 375 8 389 8 390 -44 390 -59 0 -59 -3
-67 -273 -4 -136 -11 -250 -15 -253 -5 -3 -67 113 -139 256 -72 143 -136 262
-143 265 -37 11 -87 12 -100 2z"/>
</g>
</svg>
